<svg width="17" height="17" viewBox="0 0 17 17" xmlns="http://www.w3.org/2000/svg">
<path fill-rule="evenodd" clip-rule="evenodd" d="M7.75388 6.9342V3.95889C5.39167 4.19343 3.5131 6.072 3.27857 8.4342H6.25391L6.25391 9.4342H3.27857C3.5131 11.7964 5.39167 13.675 7.75388 13.9095V10.9342H8.75388V13.9095C11.1161 13.675 12.9947 11.7964 13.2292 9.4342H10.2539V8.4342H13.2292C12.9947 6.072 11.1161 4.19343 8.75388 3.95889V6.9342H7.75388ZM14.2333 8.4342C13.9929 5.51931 11.6688 3.19522 8.75388 2.95474V0.934204H7.75388V2.95474C4.83898 3.19522 2.51489 5.51931 2.27442 8.4342H0.253906L0.253906 9.4342H2.27442C2.51489 12.3491 4.83898 14.6732 7.75388 14.9137V16.9342H8.75388V14.9137C11.6688 14.6732 13.9929 12.3491 14.2333 9.4342H16.2539V8.4342H14.2333Z" fill="black" fill-opacity="0.8"/>
</svg>
