<svg width="16" height="16" viewBox="0 0 16 16" fill="none" xmlns="http://www.w3.org/2000/svg">
<path fill-rule="evenodd" clip-rule="evenodd" d="M8 0.934204L16 15.4342H0L8 0.934204ZM8 5.31594C8.49706 5.31594 8.9 5.71889 8.9 6.21594V9.30374C8.9 9.8008 8.49706 10.2037 8 10.2037C7.50294 10.2037 7.1 9.8008 7.1 9.30374V6.21594C7.1 5.71889 7.50294 5.31594 8 5.31594ZM9.10007 12.691C9.10007 12.0835 8.60759 11.591 8.00007 11.591C7.39256 11.591 6.90007 12.0835 6.90007 12.691V12.7596C6.90007 13.3671 7.39256 13.8596 8.00007 13.8596C8.60759 13.8596 9.10007 13.3671 9.10007 12.7596V12.691Z" fill="#F24822"/>
</svg>
